# xmcd CD database file
#
# Track frame offsets:
#	150
#	17539
#	37794
#	65690
#	85199
#
# Disc length: 1471 seconds
#
# Revision: 1
# Processed by: cddbd v1.5.2PL0 Copyright (c) Steve Scherf et al.
# Submitted via: CDex 1.70beta3
#
DISCID=3005bd05
DTITLE=SOPHIA - BANDAGE Disc 2
DYEAR=2009
DGENRE=Rock
TTITLE0=SUNNY DAY
TTITLE1=Maybe
TTITLE2=君と揺れていたい
TTITLE3=黒いブーツ～oh my friend～
TTITLE4=eye
EXTD=YEAR: 2009
EXTT0=
EXTT1=
EXTT2=
EXTT3=
EXTT4=
PLAYORDER=
